<svg width="38" height="31" viewBox="0 0 38 31" fill="none" xmlns="http://www.w3.org/2000/svg">
<path d="M1.84353 13.9213L1.84352 13.9213L1.84257 13.9241C0.972176 16.4976 0.533203 18.9875 0.533203 21.3916V28.5375C0.533203 29.3659 1.20478 30.0375 2.0332 30.0375H11.2304C12.0588 30.0375 12.7304 29.3659 12.7304 28.5375L12.7304 21.3118L12.7304 21.3076C12.7049 18.2765 13.1881 15.52 14.1723 13.0315C15.0773 10.7776 16.1723 8.60549 17.4574 6.51501C17.8809 5.82623 17.6986 4.91296 17.014 4.45678L11.9224 1.06394L11.9224 1.06394C11.3736 0.698265 10.6361 0.727684 10.1282 1.17744C8.42375 2.68649 6.87396 4.48826 5.47731 6.57912L5.47662 6.58016C3.94993 8.87808 2.73869 11.3254 1.84353 13.9213ZM21.5552 13.9213L21.5543 13.9241C20.6839 16.4976 20.2449 18.9875 20.2449 21.3916V28.5375C20.2449 29.3659 20.9165 30.0375 21.7449 30.0375H30.9421C31.7705 30.0375 32.4421 29.3659 32.4421 28.5375L32.4421 21.3118L32.442 21.3076C32.4166 18.2766 32.8998 15.5202 33.8838 13.0319C34.7889 10.7778 35.8839 8.60559 37.1691 6.51501C37.5925 5.82623 37.4102 4.91296 36.7257 4.45678L31.634 1.06394L31.634 1.06394C31.0853 0.698265 30.3478 0.727684 29.8398 1.17744L30.1713 1.5518L29.8398 1.17744C28.1354 2.68649 26.5856 4.48826 25.189 6.57912L25.1883 6.58016C23.6616 8.87807 22.4504 11.3254 21.5552 13.9213Z" fill="url(#paint0_linear_113_4986)" stroke="#CAFF33"/>
<defs>
<linearGradient id="paint0_linear_113_4986" x1="19.1508" y1="1.06689" x2="19.1508" y2="29.5375" gradientUnits="userSpaceOnUse">
<stop stop-color="#CAFF33"/>
<stop offset="1" stop-color="#191919"/>
</linearGradient>
</defs>
</svg>
